<?xml version="1.0" encoding="UTF-8" standalone="no"?><svg xmlns="http://www.w3.org/2000/svg" viewBox="0 0 28.87 28.87"><defs><style>.cls-1{fill:#2a5afc;}.cls-2{fill:#fff;fill-rule:evenodd;}</style></defs><title>Asset 23</title><g id="Layer_2" data-name="Layer 2"><g id="Layer_1-2" data-name="Layer 1"><rect class="cls-1" width="28.87" height="28.87" rx="6.48" ry="6.48" fill="#2a5afc"/><path class="cls-2" d="M6.46 19.61V9.27h5.08a3.93 3.93 0 0 1 1.6.32 2.34 2.34 0 0 1 1.44 1.91 2.88 2.88 0 0 1-.12 1.41 1.94 1.94 0 0 1-.91 1l-.2.11h.09a2.24 2.24 0 0 1 1.44 1.77 3.11 3.11 0 0 1-.25 2 2.88 2.88 0 0 1-2.21 1.64 7.85 7.85 0 0 1-1.32.11H6.46zm2.39-1.8h2.23a3.63 3.63 0 0 0 .66-.07 1.16 1.16 0 0 0 1-.94 2.12 2.12 0 0 0 0-.58 1.09 1.09 0 0 0-.76-1 2.26 2.26 0 0 0-.75-.13H8.85zm0-4.47h2.25a2.06 2.06 0 0 0 1-.22.83.83 0 0 0 .43-.54 1.58 1.58 0 0 0 0-.62.86.86 0 0 0-.66-.77 3.88 3.88 0 0 0-1-.13h-2z" fill="#fff" fill-rule="evenodd"/><path class="cls-2" d="M23.08 16.13h-5.4v.32a2 2 0 0 0 .17.6 1.58 1.58 0 0 0 1.19.88 2.23 2.23 0 0 0 .9 0 1.42 1.42 0 0 0 1-.75.1.1 0 0 1 .1-.06H23c0 .1 0 .2-.07.29a2.63 2.63 0 0 1-.59 1 3.33 3.33 0 0 1-2.09 1.1 4.53 4.53 0 0 1-1.93-.1 3.76 3.76 0 0 1-1.72-1 2.91 2.91 0 0 1-.72-1.44 5.57 5.57 0 0 1 .12-2.88 3.23 3.23 0 0 1 2.67-2.34 4.27 4.27 0 0 1 2.45.24 3.1 3.1 0 0 1 1.6 1.54 3.64 3.64 0 0 1 .34 1.47v1.11c.03-.02.03 0 .02.02zm-2-1.28v-.21a1.48 1.48 0 0 0-.94-1.2 1.9 1.9 0 0 0-.87-.12 1.44 1.44 0 0 0-1.31.9 3.75 3.75 0 0 0-.16.47 1.75 1.75 0 0 0 0 .19z" fill="#fff" fill-rule="evenodd"/><path class="cls-2" d="M17.31 10.89v-1.2h4.16v1.19z" fill="#fff" fill-rule="evenodd"/></g></g><metadata><rdf:RDF xmlns:rdf="http://www.w3.org/1999/02/22-rdf-syntax-ns#" xmlns:rdfs="http://www.w3.org/2000/01/rdf-schema#" xmlns:dc="http://purl.org/dc/elements/1.1/"><rdf:Description about="https://iconscout.com/legal#licenses" dc:title="asset" dc:description="asset" dc:publisher="Iconscout" dc:date="2017-09-17" dc:format="image/svg+xml" dc:language="en"><dc:creator><rdf:Bag><rdf:li>Stone Hub</rdf:li></rdf:Bag></dc:creator></rdf:Description></rdf:RDF></metadata></svg>