<?xml version="1.0" encoding="UTF-8" standalone="no"?><svg xmlns="http://www.w3.org/2000/svg" viewBox="0 0 28.87 28.87"><defs><style>.cls-1{fill:#2dbe60;}.cls-2{fill:#fff;}</style></defs><title>Asset 33</title><g id="Layer_2" data-name="Layer 2"><g id="Layer_1-2" data-name="Layer 1"><rect class="cls-1" width="28.87" height="28.87" rx="6.48" ry="6.48" fill="#2dbe60"/><path class="cls-2" d="M18.85 14.26c-.1.1-.54-.28-.89-.28s-.65.29-.74.18.08-1 .74-1 1 1 .89 1.08zm2-4.92c0-1-1.52-1.14-1.52-1.14L15.74 8a1.72 1.72 0 0 0-.8-1.33 9.9 9.9 0 0 0-2.85-.2.5.5 0 0 0-.49.5v2.24a.67.67 0 0 1-.67.67H8.78c-.56 0-1 .22-1 .68s.65 5.44 1.57 6.39c.53.53 3.77.94 4.46.94s.46-2 .65-2 .4 1.17 1.48 1.44 2.51.23 2.59 1c.1 1 .19 2.36-.48 2.45l-1.5.06c-.44 0-.39-1.22-.3-1.22h.38a.32.32 0 0 0 .31-.31v-.64a.32.32 0 0 0-.32-.34c-.66 0-2.05.12-2.13 1.36-.09 1.48.16 2.18.34 2.33s.5.45 3.39.45c4.08 0 2.58-12.07 2.58-13.1z" fill="#fff"/><path class="cls-2" d="M10.36 6.85L8.57 8.69a.23.23 0 0 0 .16.38h1.79a.23.23 0 0 0 .23-.23V7a.23.23 0 0 0-.39-.16z" fill="#fff"/></g></g><metadata><rdf:RDF xmlns:rdf="http://www.w3.org/1999/02/22-rdf-syntax-ns#" xmlns:rdfs="http://www.w3.org/2000/01/rdf-schema#" xmlns:dc="http://purl.org/dc/elements/1.1/"><rdf:Description about="https://iconscout.com/legal#licenses" dc:title="asset" dc:description="asset" dc:publisher="Iconscout" dc:date="2017-09-17" dc:format="image/svg+xml" dc:language="en"><dc:creator><rdf:Bag><rdf:li>Stone Hub</rdf:li></rdf:Bag></dc:creator></rdf:Description></rdf:RDF></metadata></svg>