<?xml version="1.0" encoding="UTF-8" standalone="no"?><svg xmlns="http://www.w3.org/2000/svg" viewBox="0 0 28.87 28.87"><defs><style>.cls-1{fill:#fc5345;}.cls-2{fill:#fff;}</style></defs><title>Asset 4</title><g id="Layer_2" data-name="Layer 2"><g id="Layer_1-2" data-name="Layer 1"><rect class="cls-1" width="28.87" height="28.87" rx="6.48" ry="6.48" fill="#fc5345"/><path class="cls-2" d="M12.19 13.31v2.47h3.28a2.79 2.79 0 0 1-1.21 1.84 3.52 3.52 0 0 1-1.78.57 3.59 3.59 0 0 1-1.32-.19 3.69 3.69 0 0 1-2.53-3.19 3.5 3.5 0 0 1 .07-1.11 3.62 3.62 0 0 1 4-2.82 3.31 3.31 0 0 1 1.8.87L16.32 10a7.48 7.48 0 0 0-1.09-.8 5.84 5.84 0 0 0-2.91-.79h-.59a4.8 4.8 0 0 0-1 .16 6.14 6.14 0 0 0-4.65 5.6 5.79 5.79 0 0 0 .13 1.65 6.07 6.07 0 0 0 2.4 3.66 6 6 0 0 0 3.27 1.16 6.51 6.51 0 0 0 2-.2 5.34 5.34 0 0 0 3-2A6.58 6.58 0 0 0 18 13.31z" fill="#fff"/><path class="cls-2" fill="#fff" d="M25.38 13.39H23.3v-2.13H21.63v2.13h-2.14V15.07h2.14v2.14H23.3v-2.14h2.14V13.39h-.06z"/></g></g><metadata><rdf:RDF xmlns:rdf="http://www.w3.org/1999/02/22-rdf-syntax-ns#" xmlns:rdfs="http://www.w3.org/2000/01/rdf-schema#" xmlns:dc="http://purl.org/dc/elements/1.1/"><rdf:Description about="https://iconscout.com/legal#licenses" dc:title="asset" dc:description="asset" dc:publisher="Iconscout" dc:date="2017-09-17" dc:format="image/svg+xml" dc:language="en"><dc:creator><rdf:Bag><rdf:li>Stone Hub</rdf:li></rdf:Bag></dc:creator></rdf:Description></rdf:RDF></metadata></svg>