<?xml version="1.0" encoding="UTF-8" standalone="no"?><svg xmlns="http://www.w3.org/2000/svg" viewBox="0 0 28.87 28.87"><defs><style>.cls-1{fill:#6e6e6e;}.cls-2{fill:#fff;fill-rule:evenodd;}</style></defs><title>Asset 29</title><g id="Layer_2" data-name="Layer 2"><g id="Layer_1-2" data-name="Layer 1"><rect class="cls-1" width="28.87" height="28.87" rx="6.48" ry="6.48" fill="#6e6e6e"/><path class="cls-2" d="M20.72 18c-.56 1.52-2.17 4.07-3.75 3.77-1.09-.21-1.57-.77-2.79-.54-.86.16-1.16.49-1.85.56a2.84 2.84 0 0 1-2.43-1.52 10.65 10.65 0 0 1-1.08-1.94 8 8 0 0 1-.54-4.93 3.85 3.85 0 0 1 2.54-2.75 4.59 4.59 0 0 1 3.41.38c.56.16 1-.08 1.67-.33a4 4 0 0 1 4.5 1.2c-2.31 1.65-2.23 4.49.4 5.86 0 .07-.01.07-.08.24z" fill="#fff" fill-rule="evenodd"/><path class="cls-2" d="M17.39 7.08a4.17 4.17 0 0 1 0 .61 3.2 3.2 0 0 1-3 3 3.24 3.24 0 0 1 0-.52 3.46 3.46 0 0 1 2.74-3z" fill="#fff" fill-rule="evenodd"/></g></g><metadata><rdf:RDF xmlns:rdf="http://www.w3.org/1999/02/22-rdf-syntax-ns#" xmlns:rdfs="http://www.w3.org/2000/01/rdf-schema#" xmlns:dc="http://purl.org/dc/elements/1.1/"><rdf:Description about="https://iconscout.com/legal#licenses" dc:title="asset" dc:description="asset" dc:publisher="Iconscout" dc:date="2017-09-17" dc:format="image/svg+xml" dc:language="en"><dc:creator><rdf:Bag><rdf:li>Stone Hub</rdf:li></rdf:Bag></dc:creator></rdf:Description></rdf:RDF></metadata></svg>