<?xml version="1.0" encoding="UTF-8" standalone="no"?><svg xmlns="http://www.w3.org/2000/svg" viewBox="0 0 28.87 28.87"><defs><style>.cls-1{fill:#ffc122;}.cls-2{fill:#fff;fill-rule:evenodd;}</style></defs><title>Asset 15</title><g id="Layer_2" data-name="Layer 2"><g id="Layer_1-2" data-name="Layer 1"><rect class="cls-1" width="28.87" height="28.87" rx="6.48" ry="6.48" fill="#ffc122"/><path class="cls-2" d="M11.73 21.25a3.82 3.82 0 0 1-1.49-.34 4.3 4.3 0 0 1-2.6-3.68v-5.32A4.32 4.32 0 0 1 10.8 7.8a16.42 16.42 0 0 1 4.83 0 4.42 4.42 0 0 1 2.91 2.83c.27 1.08.09 2 .78 2.1s1 .06 1.33.1a.67.67 0 0 1 .58.71c0 3.86 0 4.3-.4 5.15a4.32 4.32 0 0 1-3.56 2.54h-5.54zm5-3.55a.81.81 0 1 0 0-1.62h-4.7A.81.81 0 1 0 12 17.7zm-2.23-4.92a.82.82 0 1 0-.24-1.61h-2.32a.81.81 0 0 0 .06 1.62s2.3.02 2.5-.01z" fill="#fff" fill-rule="evenodd"/></g></g><metadata><rdf:RDF xmlns:rdf="http://www.w3.org/1999/02/22-rdf-syntax-ns#" xmlns:rdfs="http://www.w3.org/2000/01/rdf-schema#" xmlns:dc="http://purl.org/dc/elements/1.1/"><rdf:Description about="https://iconscout.com/legal#licenses" dc:title="asset" dc:description="asset" dc:publisher="Iconscout" dc:date="2017-09-17" dc:format="image/svg+xml" dc:language="en"><dc:creator><rdf:Bag><rdf:li>Stone Hub</rdf:li></rdf:Bag></dc:creator></rdf:Description></rdf:RDF></metadata></svg>