<?xml version="1.0" encoding="UTF-8" standalone="no"?><svg xmlns="http://www.w3.org/2000/svg" viewBox="0 0 28.87 28.87"><defs><style>.cls-1{fill:#007ee6;}.cls-2{fill:#fff;}</style></defs><title>Asset 24</title><g id="Layer_2" data-name="Layer 2"><g id="Layer_1-2" data-name="Layer 1"><rect class="cls-1" width="28.87" height="28.87" rx="6.48" ry="6.48" fill="#007ee6"/><path class="cls-2" fill="#fff" d="M11.21 7.5l-4.63 3.03 3.19 2.57 4.68-2.89-3.24-2.71z"/><path class="cls-2" fill="#fff" d="M22.29 10.53l-4.62-3.01-3.22 2.69 4.66 2.88 3.18-2.56z"/><path class="cls-2" fill="#fff" d="M14.45 15.97l3.22 2.7 4.62-3.02-3.18-2.56-4.66 2.88z"/><path class="cls-2" fill="#fff" d="M6.58 15.67l4.63 3 3.24-2.7-4.68-2.87-3.19 2.57z"/><path class="cls-2" fill="#fff" d="M14.45 16.55l-3.23 2.71-1.38-.9v1l4.61 2.78 4.64-2.78v-1l-1.4.9-3.24-2.71z"/></g></g><metadata><rdf:RDF xmlns:rdf="http://www.w3.org/1999/02/22-rdf-syntax-ns#" xmlns:rdfs="http://www.w3.org/2000/01/rdf-schema#" xmlns:dc="http://purl.org/dc/elements/1.1/"><rdf:Description about="https://iconscout.com/legal#licenses" dc:title="asset" dc:description="asset" dc:publisher="Iconscout" dc:date="2017-09-17" dc:format="image/svg+xml" dc:language="en"><dc:creator><rdf:Bag><rdf:li>Stone Hub</rdf:li></rdf:Bag></dc:creator></rdf:Description></rdf:RDF></metadata></svg>