<?xml version="1.0" encoding="UTF-8" standalone="no"?><svg xmlns="http://www.w3.org/2000/svg" viewBox="0 0 28.87 28.87"><defs><style>.cls-1{fill:#81b441;}.cls-2{fill:#fff;fill-rule:evenodd;}</style></defs><title>Asset 26</title><g id="Layer_2" data-name="Layer 2"><g id="Layer_1-2" data-name="Layer 1"><rect class="cls-1" width="28.87" height="28.87" rx="6.48" ry="6.48" fill="#81b441"/><path class="cls-2" d="M11 16.08c0-.32 0-.65.08-1a9.63 9.63 0 0 1 3.45-6.35 4.27 4.27 0 0 1 3-1.33c.71-.11 1.35-.13 1.6.41a15.22 15.22 0 0 1 .8 1.87c2.84 9.16-3.07 13.09-7.54 11.41a6 6 0 0 1-2.42-9.93c.2-.21.39.13.37.28-.07.5-.86 3.31.61 4.68z" fill="#fff" fill-rule="evenodd"/></g></g><metadata><rdf:RDF xmlns:rdf="http://www.w3.org/1999/02/22-rdf-syntax-ns#" xmlns:rdfs="http://www.w3.org/2000/01/rdf-schema#" xmlns:dc="http://purl.org/dc/elements/1.1/"><rdf:Description about="https://iconscout.com/legal#licenses" dc:title="asset" dc:description="asset" dc:publisher="Iconscout" dc:date="2017-09-17" dc:format="image/svg+xml" dc:language="en"><dc:creator><rdf:Bag><rdf:li>Stone Hub</rdf:li></rdf:Bag></dc:creator></rdf:Description></rdf:RDF></metadata></svg>