<?xml version="1.0" encoding="UTF-8" standalone="no"?><svg xmlns="http://www.w3.org/2000/svg" viewBox="0 0 28.87 28.87"><defs><style>.cls-1{fill:#00aff0;}.cls-2{fill:#fff;}</style></defs><title>Asset 34</title><g id="Layer_2" data-name="Layer 2"><g id="Layer_1-2" data-name="Layer 1"><rect class="cls-1" width="28.87" height="28.87" rx="6.48" ry="6.48" fill="#00aff0"/><path class="cls-2" d="M22 16.13a7.48 7.48 0 0 0 .18-1.61A7.58 7.58 0 0 0 14.52 7a7.8 7.8 0 0 0-1.3.11 4.44 4.44 0 0 0-2.35-.67 4.39 4.39 0 0 0-4.43 4.36A4.31 4.31 0 0 0 7 13a7.41 7.41 0 0 0 7.47 8.91 7.8 7.8 0 0 0 1.4-.13 4.57 4.57 0 0 0 2.09.64 4.39 4.39 0 0 0 4.42-4.36 4.3 4.3 0 0 0-.38-1.93zm0 0" fill="#fff"/><path class="cls-1" d="M18 17.59a2.89 2.89 0 0 1-1.29 1 5.18 5.18 0 0 1-2 .36 4.86 4.86 0 0 1-2.31-.49 3 3 0 0 1-1-.93 2 2 0 0 1-.4-1.14.73.73 0 0 1 .24-.55.86.86 0 0 1 .62-.23.76.76 0 0 1 .51.18 1.37 1.37 0 0 1 .36.53 3.38 3.38 0 0 0 .39.69 1.55 1.55 0 0 0 .59.46 2.36 2.36 0 0 0 1 .18 2.4 2.4 0 0 0 1.29-.38 1.08 1.08 0 0 0 .53-.91.92.92 0 0 0-.29-.7 1.88 1.88 0 0 0-.74-.41q-.45-.14-1.22-.3a9.46 9.46 0 0 1-1.7-.51 2.74 2.74 0 0 1-1.09-.8 2 2 0 0 1-.4-1.26 2 2 0 0 1 .43-1.27 2.66 2.66 0 0 1 1.23-.86 5.42 5.42 0 0 1 1.89-.3 5.11 5.11 0 0 1 1.51.2 3.27 3.27 0 0 1 1.05.53 2.24 2.24 0 0 1 .61.69 1.49 1.49 0 0 1 .19.7.84.84 0 0 1-.84.82.74.74 0 0 1-.5-.15 2 2 0 0 1-.37-.5 2.27 2.27 0 0 0-.62-.77 1.93 1.93 0 0 0-1.16-.28 2.13 2.13 0 0 0-1.2.3.86.86 0 0 0-.45.72.7.7 0 0 0 .15.45 1.25 1.25 0 0 0 .43.33 3.08 3.08 0 0 0 .55.21l.92.22q.8.17 1.45.38a4.62 4.62 0 0 1 1.1.5 2.14 2.14 0 0 1 .71.75 2.24 2.24 0 0 1 .26 1.11 2.41 2.41 0 0 1-.43 1.43zm0 0" fill="#00aff0"/></g></g><metadata><rdf:RDF xmlns:rdf="http://www.w3.org/1999/02/22-rdf-syntax-ns#" xmlns:rdfs="http://www.w3.org/2000/01/rdf-schema#" xmlns:dc="http://purl.org/dc/elements/1.1/"><rdf:Description about="https://iconscout.com/legal#licenses" dc:title="asset" dc:description="asset" dc:publisher="Iconscout" dc:date="2017-09-17" dc:format="image/svg+xml" dc:language="en"><dc:creator><rdf:Bag><rdf:li>Stone Hub</rdf:li></rdf:Bag></dc:creator></rdf:Description></rdf:RDF></metadata></svg>