<?xml version="1.0" encoding="UTF-8" standalone="no"?><svg xmlns="http://www.w3.org/2000/svg" viewBox="0 0 28.87 28.87"><defs><style>.cls-1{fill:#3eb890;}.cls-2{fill:#fff;}</style></defs><title>Asset 35</title><g id="Layer_2" data-name="Layer 2"><g id="Layer_1-2" data-name="Layer 1"><rect class="cls-1" width="28.87" height="28.87" rx="6.48" ry="6.48" fill="#3eb890"/><path class="cls-2" d="M22.43 14.88v-.06a1.38 1.38 0 0 0-1.33-.92 1.47 1.47 0 0 0-.45.08l-1.58.53-1-3 1.48-.51a1.37 1.37 0 0 0 1-1.62v-.06a1.37 1.37 0 0 0-1.33-.93 1.54 1.54 0 0 0-.42.06l-1.56.52-.52-1.54a1.4 1.4 0 0 0-2.72.79v.06l.52 1.54-3 1L11 9.29a1.4 1.4 0 0 0-1.34-1 1.42 1.42 0 0 0-.44.07 1.4 1.4 0 0 0-.88 1.77l.52 1.53-1.52.51a1.39 1.39 0 0 0-.9 1.7v.06a1.33 1.33 0 0 0 1.3.91 1.48 1.48 0 0 0 .46-.08l1.51-.52 1 3-1.51.51a1.4 1.4 0 0 0-.9 1.72v.06a1.33 1.33 0 0 0 1.3.9 1.57 1.57 0 0 0 .48-.08l1.48-.51.53 1.56a1.4 1.4 0 0 0 1.34 1 1.41 1.41 0 0 0 .43-.07 1.4 1.4 0 0 0 .88-1.77L14.28 19l3-1 .54 1.59a1.4 1.4 0 0 0 2.67-.86l-.54-1.6 1.66-.57a1.91 1.91 0 0 0 .68-.48 1.44 1.44 0 0 0 .14-1.2zm-9 1.54l-1-3 3-1 1 3z" fill="#fff"/></g></g><metadata><rdf:RDF xmlns:rdf="http://www.w3.org/1999/02/22-rdf-syntax-ns#" xmlns:rdfs="http://www.w3.org/2000/01/rdf-schema#" xmlns:dc="http://purl.org/dc/elements/1.1/"><rdf:Description about="https://iconscout.com/legal#licenses" dc:title="asset" dc:description="asset" dc:publisher="Iconscout" dc:date="2017-09-17" dc:format="image/svg+xml" dc:language="en"><dc:creator><rdf:Bag><rdf:li>Stone Hub</rdf:li></rdf:Bag></dc:creator></rdf:Description></rdf:RDF></metadata></svg>