<?xml version="1.0" encoding="UTF-8" standalone="no"?><svg xmlns="http://www.w3.org/2000/svg" viewBox="0 0 28.87 28.87"><defs><style>.cls-1{fill:#23b6ea;}.cls-2{fill:#fff;}</style></defs><title>Asset 20</title><g id="Layer_2" data-name="Layer 2"><g id="Layer_1-2" data-name="Layer 1"><rect class="cls-1" width="28.87" height="28.87" rx="6.48" ry="6.48" fill="#23b6ea"/><path class="cls-2" d="M21.85 11c-.13 2.78-5.21 9.84-8.15 9.84q-1.3 0-2.19-2.39c-1.14-4.2-1.65-6.78-2.63-6.78a4.58 4.58 0 0 0-1.16.7l-.7-.9c1.86-1.63 3.36-3.17 4.36-3.26Q13.1 8 13.5 10.56c.34 2.16.84 5.65 1.7 5.65.67 0 2.31-2.71 2.39-3.69.15-1.4-1-1.48-2.1-1q1.1-3.58 4.2-3.52 2.29.07 2.16 3z" fill="#fff"/></g></g><metadata><rdf:RDF xmlns:rdf="http://www.w3.org/1999/02/22-rdf-syntax-ns#" xmlns:rdfs="http://www.w3.org/2000/01/rdf-schema#" xmlns:dc="http://purl.org/dc/elements/1.1/"><rdf:Description about="https://iconscout.com/legal#licenses" dc:title="asset" dc:description="asset" dc:publisher="Iconscout" dc:date="2017-09-17" dc:format="image/svg+xml" dc:language="en"><dc:creator><rdf:Bag><rdf:li>Stone Hub</rdf:li></rdf:Bag></dc:creator></rdf:Description></rdf:RDF></metadata></svg>