<?xml version="1.0" encoding="UTF-8" standalone="no"?><svg xmlns="http://www.w3.org/2000/svg" viewBox="0 0 28.87 28.87"><defs><style>.cls-1{fill:#00b488;}.cls-2{fill:#fff;fill-rule:evenodd;}</style></defs><title>Asset 17</title><g id="Layer_2" data-name="Layer 2"><g id="Layer_1-2" data-name="Layer 1"><rect class="cls-1" width="28.87" height="28.87" rx="6.48" ry="6.48" fill="#00b488"/><path class="cls-2" d="M20.94 14.47a3.45 3.45 0 0 1-4.31-3.39c-.13-2.43 1.54-2.42 1.92-1.44a4.46 4.46 0 0 1-.07 2.65.25.25 0 0 0 0 .16 1.93 1.93 0 0 0 2.18.59 6.68 6.68 0 0 0 .5-2.2c.16-3-1.66-4.37-3.92-4.06a3.39 3.39 0 0 0-2.93 2.8 6.33 6.33 0 0 0 .55 4.14 5 5 0 0 0 2.05 2.14c.06 0 .08.07 0 .13a14.91 14.91 0 0 1-2.54 3.59c-.09.09-.09.09-.18 0-2.54-3.08-3.44-6.49-4-10.38H7.68c.17.8 1.1 9.1 5.41 12.45a2.58 2.58 0 0 0 .71.41 1.33 1.33 0 0 0 1.2-.17 15.62 15.62 0 0 0 4.28-5.35.15.15 0 0 1 .14-.1 11.07 11.07 0 0 0 1.5-.16z" fill="#fff" fill-rule="evenodd"/></g></g><metadata><rdf:RDF xmlns:rdf="http://www.w3.org/1999/02/22-rdf-syntax-ns#" xmlns:rdfs="http://www.w3.org/2000/01/rdf-schema#" xmlns:dc="http://purl.org/dc/elements/1.1/"><rdf:Description about="https://iconscout.com/legal#licenses" dc:title="asset" dc:description="asset" dc:publisher="Iconscout" dc:date="2017-09-17" dc:format="image/svg+xml" dc:language="en"><dc:creator><rdf:Bag><rdf:li>Stone Hub</rdf:li></rdf:Bag></dc:creator></rdf:Description></rdf:RDF></metadata></svg>