<?xml version="1.0" encoding="UTF-8" standalone="no"?><svg xmlns="http://www.w3.org/2000/svg" viewBox="0 0 28.87 28.87"><defs><style>.cls-1{fill:#673276;}.cls-2{fill:#fefefe;}</style></defs><title>Asset 19</title><g id="Layer_2" data-name="Layer 2"><g id="Layer_1-2" data-name="Layer 1"><rect class="cls-1" width="28.87" height="28.87" rx="6.48" ry="6.48" fill="#673276"/><path class="cls-2" d="M21 10.94l-.06-.06h-.88l-4.06.07h-.84l-.06.06v.81l.06.06h.51l1.53.12h.07l-.09.08-2.7 2.29h-.13c-.77-1-1.56-1.91-2.32-2.88l-.54-.67.89-.08.95-.07.06-.06.09-.81-.06-.08h-7l-.06.08v.78l.09.09 1.95.14.12.06 1.69 2.07 2.26 2.72v2.56l-1 .08-1.18.09-.07.07v.68l.06.07h6.88v-.77h-.31l-1.84-.07-.01-.16c0-.86 0-1.71.06-2.57v-.07l.91-.8 2.91-2.6h.51l1.56-.17.05-.1z" fill="#fefefe"/><path class="cls-2" fill="#fefefe" d="M22.44 13.05l-.05.16-.42 1.81-.5 2.02-.03.02-.71-.08h-.04l-.03-.02v-.25l.01-.23.02-.7.01-.76.02-.76.01-.75.02-.53.01-.04.44.04.29.01.52.03.33.01.1.01v.01z"/><path class="cls-2" fill="#fefefe" d="M21.07 18.43h-.46l-.03-.03-.04-.43-.03-.42.01-.01.23.02.33.02.38.03.07.01.03.02v.76l-.03.03h-.46z"/></g></g><metadata><rdf:RDF xmlns:rdf="http://www.w3.org/1999/02/22-rdf-syntax-ns#" xmlns:rdfs="http://www.w3.org/2000/01/rdf-schema#" xmlns:dc="http://purl.org/dc/elements/1.1/"><rdf:Description about="https://iconscout.com/legal#licenses" dc:title="asset" dc:description="asset" dc:publisher="Iconscout" dc:date="2017-09-17" dc:format="image/svg+xml" dc:language="en"><dc:creator><rdf:Bag><rdf:li>Stone Hub</rdf:li></rdf:Bag></dc:creator></rdf:Description></rdf:RDF></metadata></svg>